<?xml version="1.0" standalone="no"?>
<!DOCTYPE svg PUBLIC "-//W3C//DTD SVG 20010904//EN"
 "http://www.w3.org/TR/2001/REC-SVG-20010904/DTD/svg10.dtd">
<svg version="1.0" xmlns="http://www.w3.org/2000/svg"
 width="250.000000pt" height="250.000000pt" viewBox="0 0 250.000000 250.000000"
 preserveAspectRatio="xMidYMid meet">

<g transform="translate(0.000000,250.000000) scale(0.100000,-0.100000)"
fill="#000000" stroke="none">
<path d="M120 2406 c-48 -79 -69 -320 -41 -471 7 -38 25 -92 38 -120 34 -68
85 -145 95 -145 4 0 8 -6 8 -12 1 -7 23 -35 50 -63 48 -48 61 -77 40 -90 -17
-11 -40 -75 -40 -112 0 -36 43 -146 67 -173 11 -12 13 -7 13 35 0 62 13 108
42 151 29 42 50 47 87 20 17 -13 50 -31 73 -41 24 -11 44 -20 46 -21 6 -3 -11
-34 -20 -34 -5 0 -42 -21 -81 -47 -40 -27 -76 -50 -81 -52 -20 -9 -106 -102
-106 -116 0 -8 -4 -15 -8 -15 -10 0 -72 -123 -72 -144 0 -18 -16 -30 -24 -18
-3 5 -8 47 -11 93 -4 48 -13 94 -21 107 -19 29 -94 62 -140 62 l-34 0 0 -154
c0 -149 1 -154 20 -149 26 7 26 -14 1 -22 -20 -6 -19 -7 1 -27 16 -16 18 -23
9 -26 -7 -2 -17 2 -22 9 -6 10 -9 7 -9 -12 0 -22 4 -26 24 -22 13 3 26 14 29
24 8 31 37 23 37 -10 0 -23 5 -31 23 -34 19 -4 18 -4 -6 -6 -15 0 -26 -4 -26
-8 5 -28 -3 -43 -22 -43 -17 0 -20 4 -15 24 5 20 1 25 -19 28 -21 4 -25 1 -25
-19 0 -20 4 -24 18 -19 15 5 15 5 1 -6 -9 -7 -16 -30 -17 -50 -1 -32 2 -38 18
-38 13 0 20 7 20 18 0 10 3 21 6 25 11 11 34 -5 34 -24 0 -12 7 -19 19 -19 11
0 22 -4 25 -8 8 -13 -9 -33 -25 -30 -8 2 -15 -7 -17 -19 -5 -33 -42 -31 -42 1
0 19 -4 23 -20 19 -15 -4 -18 -9 -10 -18 7 -8 7 -15 1 -19 -12 -8 -15 -246 -2
-246 5 0 11 10 13 22 4 31 25 33 32 3 4 -14 13 -25 21 -25 8 0 15 -7 15 -16 0
-11 -6 -15 -20 -11 -13 3 -20 0 -20 -9 0 -8 7 -14 16 -14 8 0 22 -7 30 -15 14
-13 14 -15 0 -15 -9 0 -16 4 -16 8 0 5 -14 8 -32 8 -26 -1 -33 4 -39 24 -5 17
-7 2 -8 -43 -1 -41 3 -66 9 -62 5 3 7 12 3 20 -3 9 1 15 10 15 9 0 17 -10 19
-22 2 -16 9 -22 21 -20 10 2 17 -3 17 -13 0 -8 -9 -15 -20 -15 -23 0 -25 -10
-8 -29 9 -10 9 -12 1 -7 -6 3 -15 1 -18 -5 -4 -5 -13 -8 -21 -5 -10 4 -14 -2
-14 -20 0 -19 4 -25 15 -20 11 4 15 -2 15 -24 l0 -30 744 0 744 0 5 26 c7 38
-9 87 -38 114 -31 29 -31 41 -2 68 51 48 127 44 172 -10 46 -55 24 -162 -40
-188 -17 -7 -15 -9 10 -9 40 -1 47 5 75 63 24 51 24 56 -6 148 -5 15 -2 16 27
8 19 -6 48 -10 66 -10 40 0 49 -13 20 -29 -33 -18 -49 -49 -49 -94 1 -55 25
-87 65 -87 l32 0 -32 20 c-52 32 -54 108 -4 147 26 20 75 15 111 -12 19 -14
44 -25 57 -25 31 0 149 -37 201 -63 31 -16 42 -28 42 -44 0 -31 26 -30 34 1 5
19 15 26 48 31 43 7 88 38 88 61 0 19 28 24 45 8 32 -33 11 -77 -45 -92 l-35
-9 28 -12 c16 -6 47 -11 70 -11 36 0 39 2 23 13 -15 11 -16 19 -8 50 13 47 6
72 -24 86 -38 17 -51 14 -63 -17 -6 -15 -20 -33 -30 -39 -29 -18 -121 -18
-171 -1 -70 25 -151 48 -166 48 -8 0 -14 4 -14 9 0 5 -8 7 -18 4 -10 -2 -25 3
-33 13 -12 15 -11 16 18 10 48 -11 53 12 10 47 -21 16 -37 32 -37 37 0 4 26
10 58 13 70 8 174 39 210 64 15 9 29 17 33 16 12 -4 92 68 122 109 24 33 32
56 35 101 3 38 1 57 -7 57 -6 0 -11 -12 -11 -26 0 -59 -24 -109 -77 -161 -60
-59 -100 -76 -115 -49 -19 33 -61 64 -97 70 -45 7 -222 -11 -235 -24 -16 -16
-3 -19 44 -8 25 5 79 12 120 15 l75 5 45 -41 c52 -47 50 -51 -40 -77 -30 -9
-59 -20 -65 -24 -22 -17 -140 -21 -180 -7 -22 8 -80 20 -130 27 -84 13 -135
31 -135 50 0 5 27 19 60 32 33 12 60 26 60 30 0 5 6 8 14 8 7 0 30 16 50 35
l36 34 -39 11 c-80 21 -117 87 -107 186 5 56 19 78 60 98 45 21 50 21 82 -9
27 -25 27 -25 48 -6 28 26 216 43 216 20 0 -33 50 -118 77 -132 52 -27 95 -29
138 -7 49 25 57 25 80 0 l19 -21 13 23 c18 33 16 55 -7 61 -16 4 -20 14 -20
46 0 24 5 41 12 41 16 0 4 222 -16 277 -8 23 -12 50 -9 62 3 11 -2 30 -10 41
-22 31 -111 96 -163 119 -24 11 -44 24 -44 29 0 5 36 33 81 62 45 29 100 73
123 97 49 53 126 196 126 234 0 16 5 31 10 34 6 4 10 55 9 123 l-1 117 -13
-90 c-16 -115 -41 -210 -65 -256 -11 -20 -20 -44 -20 -53 0 -9 -4 -16 -8 -16
-4 0 -15 -12 -24 -28 -28 -47 -84 -98 -171 -156 l-85 -56 -95 16 c-77 13 -110
14 -169 5 -117 -17 -141 -22 -183 -40 -22 -10 -47 -20 -55 -23 -8 -3 -41 -26
-72 -52 l-56 -46 -49 35 c-77 54 -135 86 -183 101 -25 7 -65 20 -90 29 -28 10
-92 19 -170 22 -106 5 -141 2 -227 -16 l-103 -23 -57 28 c-32 14 -77 40 -101
56 -63 43 -104 25 -161 -71 -15 -25 -28 -36 -32 -30 -15 25 11 149 32 149 4 0
11 9 14 20 5 16 -7 35 -57 86 -68 68 -136 172 -158 239 -7 22 -17 42 -21 45
-14 10 -28 159 -23 265 3 78 10 120 34 189 34 102 33 96 21 96 -5 0 -19 -15
-31 -34z m1332 -1215 c22 -21 38 -64 33 -89 -2 -13 8 -30 26 -47 23 -20 28
-31 23 -48 -9 -32 -35 -48 -69 -45 -26 3 -34 12 -64 71 -37 75 -50 151 -31
186 11 22 12 22 38 5 15 -10 34 -25 44 -33z m868 -52 c0 -16 -7 -19 -50 -19
-27 0 -50 -4 -50 -9 0 -5 -11 -12 -24 -15 -40 -10 -93 -84 -112 -156 -25 -93
-12 -85 -165 -107 -48 -6 -52 7 -38 116 14 104 26 126 74 135 20 4 42 9 50 12
19 8 22 -24 8 -81 -7 -27 -13 -56 -13 -64 0 -14 2 -14 15 0 8 8 20 42 26 74 6
33 15 67 19 75 8 18 57 35 120 44 25 3 63 9 85 14 47 10 55 7 55 -19z m-2210
-28 c0 -5 6 -8 13 -7 21 2 19 -19 -3 -22 -21 -4 -28 -32 -7 -32 8 -1 7 -4 -3
-9 -8 -5 -35 -5 -60 -1 -44 7 -46 12 -6 14 29 2 30 23 2 30 -40 10 -22 36 25
36 21 0 39 -4 39 -9z m2204 -25 c41 -17 60 -71 32 -91 -21 -16 -21 -41 0 -53
13 -7 16 -23 13 -90 -4 -70 -8 -86 -34 -124 -27 -37 -36 -43 -72 -46 -63 -5
-95 17 -126 86 -37 81 -37 143 -3 213 31 62 59 91 101 107 41 14 50 14 89 -2z
m-953 -33 c6 -21 15 -40 19 -43 4 -3 13 -18 21 -35 13 -27 19 -30 64 -30 28 0
60 4 72 8 37 13 47 -22 47 -168 1 -188 -42 -348 -119 -449 -31 -41 -33 -81 -2
-49 9 10 27 30 38 46 21 28 59 37 59 14 0 -8 -9 -22 -20 -32 -11 -10 -20 -23
-20 -30 0 -15 -48 -37 -62 -29 -6 4 -31 8 -57 9 -34 2 -65 14 -111 42 -119 71
-273 141 -328 148 -72 10 -162 -2 -162 -21 0 -17 12 -18 28 -2 15 15 123 13
164 -3 93 -39 248 -123 245 -133 -7 -20 -509 2 -521 23 -8 14 26 195 39 214 8
12 15 27 15 34 0 18 61 145 77 161 7 7 13 18 13 23 0 33 140 189 218 243 54
37 198 95 239 96 28 0 33 -4 44 -37z m-1321 -63 c0 -5 -2 -10 -4 -10 -3 0 -8
5 -11 10 -3 6 -1 10 4 10 6 0 11 -4 11 -10z m58 -18 c-2 -11 5 -18 20 -20 12
-2 22 -10 22 -17 0 -7 -10 -15 -22 -17 -15 -2 -23 -10 -23 -23 0 -18 -6 -21
-35 -16 -5 0 -10 13 -10 27 0 16 -4 23 -11 18 -12 -7 -31 15 -23 28 3 4 13 8
22 8 10 0 23 9 30 20 14 23 34 18 30 -8z m52 24 c0 -3 -4 -8 -10 -11 -5 -3
-10 -1 -10 4 0 6 5 11 10 11 6 0 10 -2 10 -4z m-30 -426 c0 -5 -4 -10 -9 -10
-6 0 -13 5 -16 10 -3 6 1 10 9 10 9 0 16 -4 16 -10z m95 -98 c-4 -11 -8 -12
-20 -2 -15 13 -21 61 -8 73 9 10 35 -54 28 -71z m-155 38 c0 -5 -4 -10 -10
-10 -5 0 -10 5 -10 10 0 6 5 10 10 10 6 0 10 -4 10 -10z m-4 -81 c10 -17 -13
-36 -27 -22 -12 12 -4 33 11 33 5 0 12 -5 16 -11z m54 -19 c0 -5 -5 -10 -11
-10 -5 0 -7 5 -4 10 3 6 8 10 11 10 2 0 4 -4 4 -10z m-13 -62 c-3 -8 -6 -5 -6
6 -1 11 2 17 5 13 3 -3 4 -12 1 -19z m111 -43 c2 -27 -15 -42 -30 -27 -6 6
-17 8 -24 5 -13 -5 -15 1 -13 25 0 4 7 6 15 4 10 -2 39 8 49 18 0 0 2 -11 3
-25z m1575 -20 c53 -13 114 -36 134 -50 32 -21 32 -32 -1 -26 -5 1 -68 11
-140 22 -162 25 -220 41 -224 63 -5 25 113 21 231 -9z m-1633 -35 c0 -5 -4
-10 -9 -10 -6 0 -13 5 -16 10 -3 6 1 10 9 10 9 0 16 -4 16 -10z m-63 -52 c-3
-8 -6 -5 -6 6 -1 11 2 17 5 13 3 -3 4 -12 1 -19z"/>
<path d="M1256 912 c-2 -4 19 -23 47 -42 29 -19 74 -52 100 -73 49 -40 75 -44
41 -6 -20 23 -124 99 -161 118 -12 6 -24 7 -27 3z"/>
<path d="M1153 688 c-2 -5 44 -8 104 -8 59 0 119 -3 133 -6 19 -5 22 -4 14 5
-12 13 -243 21 -251 9z"/>
<path d="M1405 565 c-5 -2 -37 -11 -70 -21 -83 -25 -147 -53 -118 -54 24 0
192 58 208 71 9 9 0 11 -20 4z"/>
<path d="M2390 2434 c0 -4 13 -28 28 -53 25 -40 62 -136 75 -196 3 -11 5 7 6
40 0 51 -5 72 -37 135 -21 42 -46 76 -55 78 -9 2 -17 0 -17 -4z"/>
<path d="M890 2416 c-6 -8 -28 -16 -48 -18 -39 -3 -47 -21 -12 -26 28 -5 25
-15 -10 -35 -16 -10 -30 -22 -30 -27 0 -24 15 -40 36 -40 17 0 24 -6 24 -20 0
-17 7 -20 50 -20 38 0 50 -4 50 -15 0 -8 -7 -15 -15 -15 -8 0 -15 -7 -15 -15
0 -20 34 -19 54 1 9 8 16 26 16 40 0 24 -3 26 -62 27 -56 2 -26 17 32 17 56 0
61 2 70 26 13 33 14 30 -20 44 -37 15 -39 30 -4 30 44 0 21 25 -27 28 -25 2
-47 10 -52 18 -10 18 -21 18 -37 0z m40 -61 c0 -8 -6 -15 -14 -15 -17 0 -28
14 -19 24 12 12 33 6 33 -9z m-64 -48 c4 -4 -2 -7 -14 -7 -12 0 -22 4 -22 9 0
10 26 9 36 -2z m128 4 c3 -5 0 -11 -8 -14 -15 -6 -26 1 -26 15 0 11 27 10 34
-1z"/>
<path d="M1250 2410 c-8 -5 -32 -10 -52 -10 -38 0 -51 -13 -23 -24 11 -4 15
-20 15 -58 0 -60 -6 -73 -35 -81 -19 -5 -19 -5 3 -12 25 -8 27 -16 11 -32 -33
-33 47 -19 84 15 12 10 21 12 25 6 7 -10 74 -44 87 -44 4 0 5 9 2 21 -4 14 1
23 16 29 21 8 21 8 -7 19 -27 11 -28 13 -24 67 3 39 10 59 21 66 31 17 18 28
-32 28 -28 0 -53 5 -56 10 -8 12 -16 12 -35 0z"/>
<path d="M1534 2402 c-14 -9 -10 -70 5 -85 17 -17 13 -27 -9 -27 -11 0 -20 -5
-20 -11 0 -6 9 -13 20 -16 26 -7 25 -19 -5 -49 -14 -14 -23 -29 -20 -34 11
-18 55 13 67 47 7 18 16 33 20 33 13 0 9 -45 -4 -58 -10 -10 -10 -15 1 -21 25
-16 40 -1 47 46 5 33 3 47 -7 53 -7 5 -16 7 -20 4 -4 -2 -9 3 -13 11 -4 10 1
15 14 15 17 0 20 7 20 45 0 36 -4 45 -17 46 -10 0 -29 2 -43 5 -14 2 -30 0
-36 -4z m64 -45 c2 -11 -3 -17 -17 -17 -25 0 -38 19 -20 31 19 12 33 6 37 -14z"/>
<path d="M1709 2323 c-1 -49 0 -98 1 -110 1 -15 -4 -23 -14 -23 -21 0 -21 -19
0 -27 27 -10 33 9 37 130 4 95 2 117 -9 117 -11 0 -14 -20 -15 -87z"/>
<path d="M1665 2369 c-3 -8 -6 -41 -7 -74 -2 -46 0 -60 12 -63 12 -2 15 10 13
69 -2 71 -8 94 -18 68z"/>
<path d="M908 2144 c-5 -4 -8 -25 -8 -46 0 -27 -4 -38 -15 -38 -11 0 -15 11
-15 40 0 39 -1 40 -35 40 -39 0 -50 -26 -13 -32 31 -4 35 -28 5 -28 -20 0 -26
-6 -31 -32 -6 -32 4 -53 27 -53 19 0 20 -35 2 -55 -18 -20 -13 -40 10 -40 21
0 35 33 35 79 0 40 -8 48 -42 42 -13 -2 -9 27 5 32 18 6 37 -3 37 -19 0 -8 7
-14 15 -14 12 0 15 -13 15 -55 0 -59 6 -64 46 -39 23 16 26 15 44 -1 16 -14
23 -16 32 -7 9 9 5 18 -15 36 -32 30 -36 66 -8 66 10 0 21 6 24 14 4 11 -3 16
-29 18 l-35 3 26 35 c22 29 23 36 10 38 -9 2 -25 -8 -37 -23 -23 -29 -35 -24
-40 18 -2 16 -6 25 -10 21z m42 -160 c0 -15 -6 -24 -15 -24 -15 0 -21 40 -9
53 12 11 24 -3 24 -29z"/>
<path d="M1197 2133 c-4 -3 -10 -28 -13 -54 -4 -26 -13 -50 -20 -53 -19 -7
-18 -26 1 -26 21 0 19 -27 -5 -58 -15 -18 -18 -28 -10 -36 8 -8 15 -6 25 8 13
18 16 18 49 2 38 -18 166 -23 166 -6 0 6 -19 10 -42 10 -24 0 -49 4 -57 9 -19
12 -3 34 21 28 23 -6 48 1 48 14 0 5 -13 9 -30 9 -43 0 -37 15 6 17 44 2 55
11 31 24 -12 7 -17 23 -17 58 0 46 -1 49 -31 55 -41 8 -114 8 -122 -1z m96
-30 c-13 -2 -33 -2 -45 0 -13 2 -3 4 22 4 25 0 35 -2 23 -4z m-38 -43 c3 -5 2
-10 -4 -10 -5 0 -13 5 -16 10 -3 6 -2 10 4 10 5 0 13 -4 16 -10z m52 -6 c-3
-3 -12 -4 -19 -1 -8 3 -5 6 6 6 11 1 17 -2 13 -5z m-57 -83 c0 -23 -9 -31 -26
-24 -14 5 -19 34 -8 46 11 10 34 -5 34 -22z"/>
<path d="M1606 2131 c-4 -5 -3 -16 0 -24 3 -8 1 -18 -5 -22 -16 -9 -13 -66 4
-85 19 -21 5 -70 -20 -70 -12 0 -14 4 -6 17 7 13 5 20 -7 29 -13 9 -17 29 -17
80 0 48 -4 69 -14 72 -11 4 -12 -3 -7 -32 6 -32 5 -36 -14 -36 -24 0 -27 -15
-4 -24 12 -5 14 -18 9 -70 -5 -61 -4 -64 15 -59 11 3 27 0 35 -7 11 -9 19 -7
40 14 14 14 25 34 25 46 0 11 5 20 10 20 6 0 10 -15 10 -33 0 -18 5 -38 12
-45 16 -16 53 -15 68 3 15 18 3 42 -13 26 -6 -6 -17 -11 -24 -11 -19 0 -17 67
3 78 17 9 22 61 8 83 -5 8 -7 22 -6 32 2 10 -3 17 -12 17 -9 0 -16 -7 -16 -15
0 -22 -37 -18 -43 5 -5 21 -22 27 -31 11z m82 -93 c-4 -26 -44 -32 -67 -10
-12 12 -12 15 0 23 8 5 27 9 42 9 24 0 28 -4 25 -22z"/>
<path d="M1248 1843 c-3 -26 -7 -28 -50 -31 -34 -2 -48 -7 -48 -18 0 -10 12
-14 40 -14 36 0 40 -3 40 -25 0 -24 -37 -68 -76 -91 -15 -9 -16 -15 -7 -24 9
-10 18 -8 44 10 29 22 33 22 44 7 7 -9 17 -17 24 -17 17 0 13 40 -4 46 -19 8
-19 30 -1 37 9 4 17 -1 20 -11 9 -26 63 -82 79 -82 27 0 28 30 2 40 -13 5 -36
28 -51 50 -31 47 -24 60 34 60 22 0 32 5 32 15 0 11 -12 15 -45 15 -43 0 -45
1 -45 30 0 39 -27 41 -32 3z"/>
<path d="M813 1848 c2 -8 25 -13 60 -14 66 -1 79 -9 49 -30 -18 -12 -22 -25
-22 -70 0 -30 -5 -63 -12 -74 -14 -22 -6 -35 17 -27 11 5 15 22 15 67 0 55 3
65 29 91 16 16 36 29 44 29 12 0 27 19 27 36 0 2 -48 4 -106 4 -80 0 -105 -3
-101 -12z"/>
<path d="M1520 1835 c0 -12 13 -15 67 -15 l67 0 -27 -28 c-23 -24 -27 -37 -27
-83 0 -30 -5 -60 -10 -65 -15 -15 11 -36 29 -24 13 7 17 32 20 117 1 27 8 36
46 59 25 14 44 31 42 38 -2 7 -41 12 -105 14 -86 2 -102 0 -102 -13z"/>
<path d="M949 1564 c-9 -11 -10 -20 -2 -32 16 -26 40 -26 54 -1 10 19 9 25 -7
36 -23 17 -29 16 -45 -3z m36 -14 c3 -5 -1 -10 -9 -10 -9 0 -16 5 -16 10 0 6
4 10 9 10 6 0 13 -4 16 -10z"/>
<path d="M1676 1553 c-12 -12 -6 -43 9 -43 8 0 15 9 15 19 0 21 -13 34 -24 24z"/>
<path d="M1766 733 c-3 -4 3 -12 14 -20 26 -18 27 -63 2 -63 -10 0 -26 -6 -36
-13 -17 -12 -17 -17 -5 -42 17 -34 29 -39 52 -22 21 15 40 88 31 121 -5 23
-46 50 -58 39z m16 -135 c-15 -15 -26 -4 -18 18 5 13 9 15 18 6 9 -9 9 -15 0
-24z"/>
</g>
</svg>
